<svg width="30" height="30" viewBox="0 0 30 30" fill="none" xmlns="http://www.w3.org/2000/svg">
<circle cx="15" cy="15" r="15" fill="#0852C2"/>
<path d="M9.79168 19.1667C8.76566 19.1679 7.77528 18.7904 7.0103 18.1066C6.24531 17.4229 5.75951 16.4809 5.64596 15.4612C5.53242 14.4414 5.79911 13.4157 6.39495 12.5804C6.99078 11.7451 7.87387 11.159 8.87502 10.9344C8.58535 9.58348 8.84421 8.17279 9.59465 7.0127C10.3451 5.85262 11.5256 5.03815 12.8766 4.74849C14.2275 4.45882 15.6382 4.71768 16.7983 5.46812C17.9584 6.21856 18.7728 7.3991 19.0625 8.75005H19.1667C20.4583 8.74875 21.7043 9.22743 22.6629 10.0931C23.6214 10.9589 24.2241 12.1499 24.3539 13.435C24.4837 14.72 24.1314 16.0075 23.3653 17.0474C22.5993 18.0873 21.4741 18.8055 20.2083 19.0625M11.875 22.2917L15 25.4167M15 25.4167L18.125 22.2917M15 25.4167V12.9167" stroke="white" stroke-width="2" stroke-linecap="round" stroke-linejoin="round"/>
</svg>
