<svg width="30" height="30" viewBox="0 0 30 30" fill="none" xmlns="http://www.w3.org/2000/svg">
<circle cx="15" cy="15" r="15" fill="#0852C2"/>
<path d="M10.2959 16.3979C10.5063 15.9771 10.625 15.5021 10.625 15C10.625 14.4979 10.5063 14.0229 10.2959 13.6021M10.2959 16.3979C9.98098 17.0275 9.46275 17.5323 8.82514 17.8306C8.18753 18.1289 7.46788 18.2031 6.78279 18.0414C6.09771 17.8796 5.4873 17.4912 5.05047 16.9392C4.61364 16.3873 4.37598 15.7039 4.37598 15C4.37598 14.2961 4.61364 13.6128 5.05047 13.0608C5.4873 12.5088 6.09771 12.1204 6.78279 11.9587C7.46788 11.7969 8.18753 11.8711 8.82514 12.1694C9.46275 12.4677 9.98098 12.9725 10.2959 13.6021M10.2959 16.3979L17.2042 19.8521M10.2959 13.6021L17.2042 10.1479M17.2042 19.8521C16.8335 20.5936 16.7725 21.452 17.0346 22.2385C17.2968 23.025 17.8606 23.6751 18.6021 24.0458C19.3436 24.4166 20.202 24.4776 20.9885 24.2154C21.775 23.9533 22.4251 23.3894 22.7959 22.6479C23.1666 21.9064 23.2276 21.048 22.9655 20.2615C22.7033 19.4751 22.1395 18.8249 21.398 18.4542C21.0308 18.2706 20.6311 18.1611 20.2216 18.132C19.8122 18.1029 19.401 18.1548 19.0116 18.2846C18.2251 18.5467 17.575 19.1106 17.2042 19.8521ZM17.2042 10.1479C17.3878 10.515 17.6419 10.8423 17.9519 11.1112C18.262 11.3801 18.622 11.5853 19.0114 11.7151C19.4008 11.8448 19.8119 11.8966 20.2213 11.8675C20.6307 11.8384 21.0303 11.7289 21.3974 11.5453C21.7645 11.3617 22.0919 11.1077 22.3607 10.7976C22.6296 10.4875 22.8348 10.1275 22.9646 9.73812C23.0943 9.34874 23.1461 8.93762 23.117 8.52822C23.0879 8.11883 22.9784 7.71918 22.7948 7.35209C22.4241 6.61073 21.774 6.04701 20.9876 5.78495C20.2012 5.52288 19.343 5.58394 18.6016 5.95469C17.8602 6.32545 17.2965 6.97552 17.0345 7.7619C16.7724 8.54828 16.8335 9.40656 17.2042 10.1479Z" stroke="white" stroke-width="2" stroke-linecap="round" stroke-linejoin="round"/>
</svg>
